<svg width="237" height="76" viewBox="0 0 237 76" fill="none" xmlns="http://www.w3.org/2000/svg">
<path d="M98 37.5C98 46.6091 92.7037 54.9598 83.93 61.0748C75.1597 67.1874 62.99 71 49.5 71C36.01 71 23.8403 67.1874 15.07 61.0748C6.29626 54.9598 1 46.6091 1 37.5C1 28.3909 6.29626 20.0402 15.07 13.9252C23.8403 7.81258 36.01 4 49.5 4C62.99 4 75.1597 7.81258 83.93 13.9252C92.7037 20.0402 98 28.3909 98 37.5Z" fill="black" stroke="black" stroke-width="2"/>
<path d="M98.5 34.8618C98.5 43.4326 93.1021 51.261 84.2312 56.971C75.3655 62.6776 63.0876 66.2235 49.5 66.2235C35.9124 66.2235 23.6345 62.6776 14.7688 56.971C5.89789 51.261 0.5 43.4326 0.5 34.8618C0.5 26.2909 5.89789 18.4625 14.7688 12.7525C23.6345 7.04595 35.9124 3.5 49.5 3.5C63.0876 3.5 75.3655 7.04595 84.2312 12.7525C93.1021 18.4625 98.5 26.2909 98.5 34.8618Z" fill="#A2DD0B" stroke="black"/>
<rect x="49.7754" y="35.0647" width="5.27647" height="15.6661" rx="2.63823" transform="rotate(90 49.7754 35.0647)" fill="white"/>
<rect width="5.39888" height="15.3121" rx="2.69944" transform="matrix(0.967479 -0.252951 0.264804 0.964302 41.1807 25.8774)" fill="white"/>
<path fill-rule="evenodd" clip-rule="evenodd" d="M23.7527 23.6848L24.266 22.8954L24.7793 22.1174L25.9228 20.368C26.0649 20.1521 26.0065 19.8623 25.7944 19.7205C25.5851 19.5756 25.298 19.6352 25.1613 19.851L23.4151 22.5121L22.8909 23.3128C21.2312 22.657 19.3818 22.2906 17.4292 22.2906C15.4796 22.2906 13.6273 22.657 11.9676 23.3128L11.446 22.5121L10.9298 21.7253L9.70261 19.851C9.56049 19.6352 9.27588 19.5786 9.06377 19.7205C8.85455 19.8623 8.79612 20.1521 8.93536 20.368L10.0788 22.1174L10.5921 22.8954L11.1083 23.6848C7.21147 25.5334 4.57568 29.0352 4.57568 33.0422H30.2821C30.2825 29.0352 27.6467 25.5338 23.7527 23.6848ZM11.9203 29.302C11.1588 29.302 10.5424 28.6745 10.5424 27.899C10.5424 27.1236 11.1588 26.4991 11.9203 26.4991C12.6818 26.4991 13.2983 27.1239 13.2983 27.899C13.2983 28.6745 12.6818 29.302 11.9203 29.302ZM22.9382 29.302C22.1767 29.302 21.5602 28.6745 21.5602 27.899C21.5602 27.1236 22.1767 26.4991 22.9382 26.4991C23.6997 26.4991 24.3161 27.1239 24.3161 27.899C24.3161 28.6745 23.6997 29.302 22.9382 29.302Z" fill="white"/>
<path d="M4.57604 34.9108H30.2828V45.1938L4.57604 45.194V34.9108Z" fill="white"/>
<rect width="5.39888" height="15.3121" rx="2.69944" transform="matrix(0.967479 0.252951 -0.264803 0.964302 54.8025 24.5118)" fill="white"/>
<rect x="51.5798" y="40.3412" width="5.27647" height="15.6661" rx="2.63823" transform="rotate(-90 51.5798 40.3412)" fill="white"/>
<path fill-rule="evenodd" clip-rule="evenodd" d="M87.3955 23.6848L87.9088 22.8954L88.4221 22.1174L89.5656 20.368C89.7077 20.1521 89.6493 19.8623 89.4372 19.7205C89.228 19.5756 88.9408 19.6352 88.8041 19.851L87.0579 22.5121L86.5337 23.3128C84.8741 22.657 83.0246 22.2906 81.0721 22.2906C79.1224 22.2906 77.2701 22.657 75.6104 23.3128L75.0888 22.5121L74.5726 21.7253L73.3454 19.851C73.2033 19.6352 72.9187 19.5786 72.7066 19.7205C72.4974 19.8623 72.4389 20.1521 72.5782 20.368L73.7217 22.1174L74.235 22.8954L74.7512 23.6848C70.8543 25.5334 68.2185 29.0352 68.2185 33.0422H93.9249C93.9253 29.0352 91.2895 25.5338 87.3955 23.6848ZM75.5631 29.302C74.8017 29.302 74.1852 28.6745 74.1852 27.899C74.1852 27.1236 74.8017 26.4991 75.5631 26.4991C76.3246 26.4991 76.9411 27.1239 76.9411 27.899C76.9411 28.6745 76.3246 29.302 75.5631 29.302ZM86.581 29.302C85.8195 29.302 85.203 28.6745 85.203 27.899C85.203 27.1236 85.8195 26.4991 86.581 26.4991C87.3425 26.4991 87.9589 27.1239 87.9589 27.899C87.9589 28.6745 87.3425 29.302 86.581 29.302Z" fill="white"/>
<path d="M68.2189 34.9108H93.9256V45.1938L68.2189 45.194V34.9108Z" fill="white"/>
<path d="M119.514 25.668C118.086 25.668 117.338 24.988 117.236 23.56C117.236 22.234 118.154 21.384 119.956 21.044C121.282 20.772 122.506 20.398 123.56 19.956V21.622C123.56 24.172 122.03 25.668 119.514 25.668ZM120.568 14.448C122.438 14.448 123.39 14.958 123.492 15.978C123.492 16.964 122.506 17.542 120.568 17.78C116.012 18.222 112.884 19.378 112.782 23.696C112.782 27.674 115.774 29.68 120.092 29.34C124.954 29 127.946 26.79 127.946 21.826V15.706C127.844 12.374 125.328 10.742 120.364 10.742C116.216 10.742 113.87 12.374 113.326 15.706H117.848C118.086 14.856 118.97 14.448 120.568 14.448ZM145.458 29V18.426C145.492 13.292 142.976 10.742 137.842 10.742C132.708 10.742 130.124 13.292 130.124 18.426V29H134.714V17.508C134.748 15.638 135.768 14.72 137.774 14.72C139.78 14.72 140.8 15.638 140.902 17.508V26.756C140.902 28.184 141.65 28.898 143.146 29H145.458ZM155.785 14.788C158.233 14.788 159.491 16.488 159.593 19.956C159.593 23.594 158.301 25.43 155.717 25.43C153.133 25.43 151.909 23.594 151.943 19.956C152.079 16.488 153.337 14.788 155.785 14.788ZM161.837 5.88H159.593V13.53C158.437 11.66 156.703 10.742 154.459 10.742C149.665 10.912 147.285 14.04 147.285 20.16C147.285 26.144 150.073 29.17 155.649 29.272C161.259 29.306 164.081 26.62 164.081 21.214V8.158C164.081 6.934 163.061 5.88 161.837 5.88ZM166.116 29H170.706V19.65C170.706 17.032 171.964 15.706 174.48 15.706H176.01V11.014H175.364C169.346 11.014 166.252 13.904 166.116 19.718V29ZM186.126 10.742C180.686 10.742 177.966 13.836 177.966 20.092C177.966 26.28 180.686 29.408 186.126 29.408C191.566 29.408 194.32 26.28 194.32 20.092C194.32 13.836 191.566 10.742 186.126 10.742ZM186.126 14.72C188.438 14.72 189.594 16.454 189.594 19.956C189.56 23.526 188.404 25.362 186.092 25.362C183.78 25.362 182.59 23.594 182.556 20.092C182.556 16.522 183.746 14.72 186.126 14.72ZM196.497 5.88V9.416H201.019V8.09C201.053 6.628 200.339 5.88 198.843 5.88H196.497ZM196.497 11.014V29H201.019V13.19C201.019 11.728 200.305 11.014 198.843 11.014H196.497ZM211.865 14.788C214.313 14.788 215.571 16.488 215.673 19.956C215.673 23.594 214.381 25.43 211.797 25.43C209.213 25.43 207.989 23.594 208.023 19.956C208.159 16.488 209.417 14.788 211.865 14.788ZM217.917 5.88H215.673V13.53C214.517 11.66 212.783 10.742 210.539 10.742C205.745 10.912 203.365 14.04 203.365 20.16C203.365 26.144 206.153 29.17 211.729 29.272C217.339 29.306 220.161 26.62 220.161 21.214V8.158C220.161 6.934 219.141 5.88 217.917 5.88ZM115.536 43.88H113.19V67H117.712V46.09C117.712 44.9 116.726 43.88 115.536 43.88ZM120.926 43.88V47.416H125.448V46.09C125.482 44.628 124.768 43.88 123.272 43.88H120.926ZM120.926 49.014V67H125.448V51.19C125.448 49.728 124.734 49.014 123.272 49.014H120.926ZM132.521 46.158C132.521 44.662 131.773 43.88 130.277 43.88H127.999V59.214C127.999 64.62 130.821 67.306 136.431 67.272C142.007 67.17 144.795 64.144 144.795 58.16C144.795 52.04 142.415 48.912 137.621 48.742C135.377 48.742 133.677 49.66 132.521 51.53V46.158ZM136.363 52.788C138.811 52.788 140.069 54.488 140.171 57.956C140.171 61.594 138.879 63.43 136.295 63.43C133.711 63.43 132.487 61.594 132.521 57.956C132.657 54.488 133.915 52.788 136.363 52.788ZM146.825 67H151.415V57.65C151.415 55.032 152.673 53.706 155.189 53.706H156.719V49.014H156.073C150.055 49.014 146.961 51.904 146.825 57.718V67ZM174.689 61.492H171.357C170.745 61.492 170.235 61.696 169.827 62.138C168.943 62.988 167.957 63.43 166.903 63.43C164.693 63.43 163.503 62.036 163.333 59.282H174.961C175.301 52.244 172.615 48.742 166.903 48.742C161.429 48.776 158.675 51.836 158.675 57.956C158.675 64.076 161.395 67.238 166.835 67.408C171.255 67.408 173.703 65.3 174.689 61.492ZM166.835 52.448C168.773 52.448 169.895 53.672 170.167 56.052H163.401C163.741 53.672 164.897 52.448 166.835 52.448Z" fill="white"/>
</svg>
