<svg width="24" height="20" viewBox="0 0 24 20" fill="none" xmlns="http://www.w3.org/2000/svg">
<path d="M23 10C23 14.8076 18.2536 19 12 19C5.74641 19 1 14.8076 1 10C1 5.19241 5.74641 1 12 1C18.2536 1 23 5.19241 23 10Z" fill="black" stroke="black" stroke-width="2"/>
<ellipse cx="12" cy="9.23529" rx="12" ry="9.23529" fill="white"/>
<rect x="12.0667" y="9.29413" width="1.52941" height="3.79785" rx="0.764705" transform="rotate(90 12.0667 9.29413)" fill="#95CF00"/>
<rect width="1.32669" height="4.39128" rx="0.663343" transform="matrix(0.954451 -0.298368 0.223843 0.974625 9.98315 6.63113)" fill="#95CF00"/>
<path fill-rule="evenodd" clip-rule="evenodd" d="M5.7581 5.99559L5.88254 5.76678L6.00698 5.54125L6.28418 5.03419C6.31864 4.97162 6.30447 4.88762 6.25305 4.8465C6.20233 4.8045 6.13273 4.82178 6.09958 4.88434L5.67625 5.65566L5.54919 5.88775C5.14684 5.69766 4.6985 5.59145 4.22515 5.59145C3.75249 5.59145 3.30345 5.69766 2.9011 5.88775L2.77466 5.65566L2.64952 5.42761L2.35202 4.88434C2.31757 4.82178 2.24857 4.80537 2.19715 4.8465C2.14643 4.88762 2.13227 4.97162 2.16602 5.03419L2.44323 5.54125L2.56767 5.76678L2.6928 5.99559C1.74811 6.53142 1.10913 7.54642 1.10913 8.70787H7.34099C7.34108 7.54642 6.7021 6.53153 5.7581 5.99559ZM2.88965 7.62375C2.70505 7.62375 2.5556 7.44186 2.5556 7.21709C2.5556 6.99233 2.70505 6.81131 2.88965 6.81131C3.07425 6.81131 3.2237 6.99244 3.2237 7.21709C3.2237 7.44186 3.07425 7.62375 2.88965 7.62375ZM5.56064 7.62375C5.37604 7.62375 5.2266 7.44186 5.2266 7.21709C5.2266 6.99233 5.37604 6.81131 5.56064 6.81131C5.74525 6.81131 5.89469 6.99244 5.89469 7.21709C5.89469 7.44186 5.74525 7.62375 5.56064 7.62375Z" fill="#95CF00"/>
<path d="M1.10922 9.2495H7.34116V12.2301L1.10922 12.2301V9.2495Z" fill="#95CF00"/>
<rect width="1.32668" height="4.39128" rx="0.663341" transform="matrix(0.954451 0.298369 -0.223842 0.974625 13.2854 6.23529)" fill="#95CF00"/>
<rect x="12.5042" y="10.8235" width="1.52941" height="3.79785" rx="0.764705" transform="rotate(-90 12.5042 10.8235)" fill="#95CF00"/>
<path fill-rule="evenodd" clip-rule="evenodd" d="M21.1868 5.99559L21.3112 5.76678L21.4357 5.54125L21.7129 5.03419C21.7473 4.97162 21.7332 4.88762 21.6818 4.8465C21.631 4.8045 21.5614 4.82178 21.5283 4.88434L21.105 5.65566L20.9779 5.88775C20.5756 5.69766 20.1272 5.59145 19.6539 5.59145C19.1812 5.59145 18.7322 5.69766 18.3298 5.88775L18.2034 5.65566L18.0782 5.42761L17.7807 4.88434C17.7463 4.82178 17.6773 4.80537 17.6259 4.8465C17.5751 4.88762 17.561 4.97162 17.5947 5.03419L17.8719 5.54125L17.9964 5.76678L18.1215 5.99559C17.1768 6.53142 16.5378 7.54642 16.5378 8.70787H22.7697C22.7698 7.54642 22.1308 6.53153 21.1868 5.99559ZM18.3184 7.62375C18.1338 7.62375 17.9843 7.44186 17.9843 7.21709C17.9843 6.99233 18.1338 6.81131 18.3184 6.81131C18.503 6.81131 18.6524 6.99244 18.6524 7.21709C18.6524 7.44186 18.503 7.62375 18.3184 7.62375ZM20.9894 7.62375C20.8048 7.62375 20.6553 7.44186 20.6553 7.21709C20.6553 6.99233 20.8048 6.81131 20.9894 6.81131C21.174 6.81131 21.3234 6.99244 21.3234 7.21709C21.3234 7.44186 21.174 7.62375 20.9894 7.62375Z" fill="#95CF00"/>
<path d="M16.5379 9.2495H22.7699V12.2301L16.5379 12.2301V9.2495Z" fill="#95CF00"/>
</svg>
