<svg width="55" height="55" viewBox="0 0 55 55" fill="none" xmlns="http://www.w3.org/2000/svg">
<ellipse cx="26.5" cy="26.95" rx="22.5" ry="24.75" fill="white"/>
<path d="M32.7637 27.5C32.7637 30.4071 30.4071 32.7637 27.5 32.7637C24.5929 32.7637 22.2363 30.4071 22.2363 27.5C22.2363 24.5929 24.5929 22.2363 27.5 22.2363C30.4071 22.2363 32.7637 24.5929 32.7637 27.5Z" fill="black"/>
<path d="M39.8099 18.187C39.5568 17.5014 39.1532 16.8808 38.6287 16.3714C38.1192 15.8468 37.499 15.4432 36.813 15.1901C36.2566 14.974 35.4207 14.7168 33.8811 14.6467C32.2157 14.5708 31.7163 14.5544 27.5 14.5544C23.2833 14.5544 22.7839 14.5704 21.1189 14.6463C19.5793 14.7168 18.743 14.974 18.187 15.1901C17.501 15.4432 16.8803 15.8468 16.3713 16.3714C15.8468 16.8808 15.4432 17.501 15.1897 18.187C14.9736 18.7434 14.7164 19.5797 14.6463 21.1193C14.5704 22.7844 14.554 23.2837 14.554 27.5004C14.554 31.7167 14.5704 32.2161 14.6463 33.8815C14.7164 35.4211 14.9736 36.257 15.1897 36.8134C15.4432 37.4995 15.8464 38.1197 16.3709 38.6291C16.8803 39.1536 17.5005 39.5573 18.1866 39.8103C18.743 40.0268 19.5793 40.284 21.1189 40.3541C22.7839 40.4301 23.2829 40.446 27.4996 40.446C31.7167 40.446 32.2161 40.4301 33.8807 40.3541C35.4203 40.284 36.2566 40.0268 36.813 39.8103C38.1902 39.2791 39.2786 38.1906 39.8099 36.8134C40.026 36.257 40.2832 35.4211 40.3537 33.8815C40.4296 32.2161 40.4456 31.7167 40.4456 27.5004C40.4456 23.2837 40.4296 22.7844 40.3537 21.1193C40.2836 19.5797 40.0264 18.7434 39.8099 18.187ZM27.5 35.6087C23.0214 35.6087 19.3909 31.9786 19.3909 27.5C19.3909 23.0214 23.0214 19.3913 27.5 19.3913C31.9781 19.3913 35.6087 23.0214 35.6087 27.5C35.6087 31.9786 31.9781 35.6087 27.5 35.6087ZM35.9293 20.9657C34.8827 20.9657 34.0343 20.1173 34.0343 19.0707C34.0343 18.0242 34.8827 17.1758 35.9293 17.1758C36.9758 17.1758 37.8242 18.0242 37.8242 19.0707C37.8238 20.1173 36.9758 20.9657 35.9293 20.9657Z" fill="black"/>
<path d="M27.5 0C12.3145 0 0 12.3145 0 27.5C0 42.6855 12.3145 55 27.5 55C42.6855 55 55 42.6855 55 27.5C55 12.3145 42.6855 0 27.5 0ZM43.1958 34.0104C43.1194 35.6913 42.8521 36.839 42.4619 37.8436C41.6415 39.9647 39.9647 41.6415 37.8436 42.4619C36.8394 42.8521 35.6913 43.119 34.0108 43.1958C32.3269 43.2726 31.7889 43.291 27.5004 43.291C23.2115 43.291 22.674 43.2726 20.9896 43.1958C19.3091 43.119 18.161 42.8521 17.1569 42.4619C16.1028 42.0653 15.1486 41.4439 14.3597 40.6403C13.5566 39.8518 12.9351 38.8972 12.5386 37.8436C12.1483 36.8394 11.881 35.6913 11.8047 34.0108C11.727 32.3264 11.709 31.7885 11.709 27.5C11.709 23.2115 11.727 22.6736 11.8042 20.9896C11.8806 19.3087 12.1475 18.161 12.5377 17.1564C12.9343 16.1028 13.5561 15.1482 14.3597 14.3597C15.1482 13.5561 16.1028 12.9347 17.1564 12.5381C18.161 12.1479 19.3087 11.881 20.9896 11.8042C22.6736 11.7274 23.2115 11.709 27.5 11.709C31.7885 11.709 32.3264 11.7274 34.0104 11.8047C35.6913 11.881 36.839 12.1479 37.8436 12.5377C38.8972 12.9343 39.8518 13.5561 40.6407 14.3597C41.4439 15.1486 42.0657 16.1028 42.4619 17.1564C42.8525 18.161 43.1194 19.3087 43.1962 20.9896C43.273 22.6736 43.291 23.2115 43.291 27.5C43.291 31.7885 43.273 32.3264 43.1958 34.0104Z" fill="black"/>
</svg>
