<svg width="99" height="69" viewBox="0 0 99 69" fill="none" xmlns="http://www.w3.org/2000/svg">
<path d="M98 34.5C98 43.6091 92.7037 51.9598 83.93 58.0748C75.1597 64.1874 62.99 68 49.5 68C36.01 68 23.8403 64.1874 15.07 58.0748C6.29626 51.9598 1 43.6091 1 34.5C1 25.3909 6.29626 17.0402 15.07 10.9252C23.8403 4.81258 36.01 1 49.5 1C62.99 1 75.1597 4.81258 83.93 10.9252C92.7037 17.0402 98 25.3909 98 34.5Z" fill="black" stroke="black" stroke-width="2"/>
<path d="M98 31.8618C98 40.2051 92.7447 47.8965 83.9605 53.5506C75.1869 59.1979 63.0061 62.7235 49.5 62.7235C35.9939 62.7235 23.8131 59.1979 15.0395 53.5506C6.25531 47.8965 1 40.2051 1 31.8618C1 23.5184 6.25531 15.8271 15.0395 10.173C23.8131 4.52564 35.9939 1 49.5 1C63.0061 1 75.1869 4.52564 83.9605 10.173C92.7447 15.8271 98 23.5184 98 31.8618Z" fill="white" stroke="black" stroke-width="2"/>
<rect x="49.7754" y="32.0647" width="5.27647" height="15.6661" rx="2.63823" transform="rotate(90 49.7754 32.0647)" fill="#95CF00"/>
<rect width="5.39888" height="15.3121" rx="2.69944" transform="matrix(0.967479 -0.252951 0.264804 0.964302 41.1807 22.8774)" fill="#95CF00"/>
<path fill-rule="evenodd" clip-rule="evenodd" d="M23.7527 20.6848L24.266 19.8954L24.7793 19.1174L25.9228 17.368C26.0649 17.1521 26.0065 16.8623 25.7944 16.7205C25.5851 16.5756 25.298 16.6352 25.1613 16.851L23.4151 19.5121L22.8909 20.3128C21.2312 19.657 19.3818 19.2906 17.4292 19.2906C15.4796 19.2906 13.6273 19.657 11.9676 20.3128L11.446 19.5121L10.9298 18.7253L9.70261 16.851C9.56049 16.6352 9.27588 16.5786 9.06377 16.7205C8.85455 16.8623 8.79612 17.1521 8.93536 17.368L10.0788 19.1174L10.5921 19.8954L11.1083 20.6848C7.21147 22.5334 4.57568 26.0352 4.57568 30.0422H30.2821C30.2825 26.0352 27.6467 22.5338 23.7527 20.6848ZM11.9203 26.302C11.1588 26.302 10.5424 25.6745 10.5424 24.899C10.5424 24.1236 11.1588 23.4991 11.9203 23.4991C12.6818 23.4991 13.2983 24.1239 13.2983 24.899C13.2983 25.6745 12.6818 26.302 11.9203 26.302ZM22.9382 26.302C22.1767 26.302 21.5602 25.6745 21.5602 24.899C21.5602 24.1236 22.1767 23.4991 22.9382 23.4991C23.6997 23.4991 24.3161 24.1239 24.3161 24.899C24.3161 25.6745 23.6997 26.302 22.9382 26.302Z" fill="#95CF00"/>
<path d="M4.57604 31.9108H30.2828V42.1938L4.57604 42.194V31.9108Z" fill="#95CF00"/>
<rect width="5.39888" height="15.3121" rx="2.69944" transform="matrix(0.967479 0.252951 -0.264803 0.964302 54.8025 21.5118)" fill="#95CF00"/>
<rect x="51.5798" y="37.3412" width="5.27647" height="15.6661" rx="2.63823" transform="rotate(-90 51.5798 37.3412)" fill="#95CF00"/>
<path fill-rule="evenodd" clip-rule="evenodd" d="M87.3955 20.6848L87.9088 19.8954L88.4221 19.1174L89.5656 17.368C89.7077 17.1521 89.6493 16.8623 89.4372 16.7205C89.228 16.5756 88.9408 16.6352 88.8041 16.851L87.0579 19.5121L86.5337 20.3128C84.8741 19.657 83.0246 19.2906 81.0721 19.2906C79.1224 19.2906 77.2701 19.657 75.6104 20.3128L75.0888 19.5121L74.5726 18.7253L73.3454 16.851C73.2033 16.6352 72.9187 16.5786 72.7066 16.7205C72.4974 16.8623 72.4389 17.1521 72.5782 17.368L73.7217 19.1174L74.235 19.8954L74.7512 20.6848C70.8543 22.5334 68.2185 26.0352 68.2185 30.0422H93.9249C93.9253 26.0352 91.2895 22.5338 87.3955 20.6848ZM75.5631 26.302C74.8017 26.302 74.1852 25.6745 74.1852 24.899C74.1852 24.1236 74.8017 23.4991 75.5631 23.4991C76.3246 23.4991 76.9411 24.1239 76.9411 24.899C76.9411 25.6745 76.3246 26.302 75.5631 26.302ZM86.581 26.302C85.8195 26.302 85.203 25.6745 85.203 24.899C85.203 24.1236 85.8195 23.4991 86.581 23.4991C87.3425 23.4991 87.9589 24.1239 87.9589 24.899C87.9589 25.6745 87.3425 26.302 86.581 26.302Z" fill="#95CF00"/>
<path d="M68.2189 31.9108H93.9256V42.1938L68.2189 42.194V31.9108Z" fill="#95CF00"/>
</svg>
